<?xml version="1.0" encoding="iso-8859-1"?>
<!-- Uploaded to: SVG Repo, www.svgrepo.com, Generator: SVG Repo Mixer Tools -->
<svg fill="#000000" version="1.1" id="Layer_1" xmlns="http://www.w3.org/2000/svg" xmlns:xlink="http://www.w3.org/1999/xlink" 
	 viewBox="0 0 485 485" xml:space="preserve">
<g>
	<path d="M485,322.372c0-26.969-21.94-48.909-48.909-48.909H48.909C21.94,273.463,0,295.403,0,322.372
		c0,21.974,14.568,40.606,34.552,46.755c6.463,64.458,61.022,114.952,127.155,114.952h161.586
		c66.132,0,120.691-50.493,127.155-114.952C470.432,362.978,485,344.346,485,322.372z M323.293,454.079H161.707
		c-48.826,0-89.409-35.967-96.648-82.798h354.882C412.702,418.112,372.119,454.079,323.293,454.079z M436.091,341.281H48.909
		c-10.427,0-18.909-8.483-18.909-18.909s8.482-18.909,18.909-18.909h387.182c10.427,0,18.909,8.483,18.909,18.909
		S446.518,341.281,436.091,341.281z"/>
	<path d="M451.091,128.719c0-70.468-57.33-127.798-127.798-127.798H161.707c-70.468,0-127.798,57.33-127.798,127.798v55.229h417.182
		V128.719z M421.091,153.948H63.909v-25.229c0-53.926,43.872-97.798,97.798-97.798h161.586c53.926,0,97.798,43.872,97.798,97.798
		V153.948z"/>
	<rect x="33.909" y="213.706" width="417.182" height="30"/>
</g>
</svg>